
<?xml version="1.0" standalone="no"?>
<!DOCTYPE svg PUBLIC "-//W3C//DTD SVG 20010904//EN"
 "http://www.w3.org/TR/2001/REC-SVG-20010904/DTD/svg10.dtd">
<svg version="1.0" xmlns="http://www.w3.org/2000/svg"
 width="512.000000pt" height="512.000000pt" viewBox="0 0 512.000000 512.000000"
 preserveAspectRatio="xMidYMid meet">
<metadata>
Created by potrace 1.14, written by Peter Selinger 2001-2017
</metadata>
<g transform="translate(0.000000,512.000000) scale(0.100000,-0.100000)"
fill="#000000" stroke="none">
<path d="M1043 5109 c-387 -50 -738 -302 -917 -657 -43 -85 -87 -216 -107
-317 -12 -58 -14 -333 -14 -1580 0 -1435 1 -1514 19 -1595 105 -483 475 -845
961 -941 104 -21 3046 -21 3150 0 245 48 457 161 631 335 174 174 287 386 335
631 21 104 21 3046 0 3150 -48 245 -161 457 -335 631 -189 189 -407 298 -676
339 -80 13 -319 15 -1540 14 -795 -1 -1473 -5 -1507 -10z m317 -1200 c165
-154 300 -283 300 -286 0 -2 -23 -30 -51 -61 -28 -32 -71 -90 -96 -129 -26
-40 -49 -73 -52 -73 -3 0 -70 62 -147 138 -118 114 -147 148 -174 203 -41 87
-48 161 -25 265 l17 78 -33 28 c-18 15 -36 28 -39 28 -13 0 -51 -128 -56 -190
-7 -81 14 -181 57 -261 29 -54 86 -114 292 -310 65 -61 68 -66 58 -93 l-11
-28 -91 83 c-223 203 -297 282 -328 348 -55 118 -65 246 -27 367 14 45 90 174
102 174 3 0 140 -126 304 -281z m2735 225 c99 -148 111 -328 33 -486 -32 -65
-99 -136 -316 -336 l-102 -94 -10 28 c-11 27 -6 33 159 194 186 181 211 216
238 344 20 98 1 243 -40 300 -13 18 -15 17 -50 -13 l-36 -32 16 -42 c10 -26
17 -75 17 -132 1 -83 -2 -96 -33 -160 -28 -59 -56 -92 -175 -207 -77 -76 -143
-138 -146 -138 -3 0 -29 35 -57 78 -28 43 -72 101 -97 129 -25 28 -46 55 -45
59 1 10 590 562 601 563 3 1 23 -24 43 -55z m-1328 -340 c315 -65 587 -277
728 -568 25 -50 45 -97 45 -102 0 -26 -353 -118 -575 -151 -171 -25 -649 -25
-820 0 -227 34 -575 126 -575 152 0 6 20 52 44 101 141 290 409 500 727 569
91 19 331 19 426 -1z m-1180 -928 l52 -17 3 -161 3 -160 -52 4 c-29 3 -55 7
-58 10 -24 24 -36 354 -12 346 6 -3 35 -13 64 -22z m2013 -95 c0 -106 -12
-216 -25 -229 -3 -3 -29 -7 -58 -10 l-52 -4 2 158 2 159 58 22 c32 12 61 22
66 22 4 1 7 -52 7 -118z m-1730 25 l115 -23 3 -142 3 -141 -73 6 c-40 4 -98 9
-128 13 l-55 6 -3 153 c-2 118 0 152 10 152 7 0 65 -11 128 -24z m1508 -128
l-3 -153 -55 -6 c-30 -4 -88 -9 -128 -13 l-73 -6 3 142 3 142 105 22 c58 11
115 22 128 23 l23 1 -3 -152z m-2290 32 c-18 -33 -36 -60 -40 -60 -6 0 -68
104 -68 115 0 3 32 5 70 5 l71 0 -33 -60z m202 55 c0 -12 -50 -104 -59 -110
-9 -5 -71 89 -71 108 0 4 29 7 65 7 36 0 65 -2 65 -5z m960 -13 l85 -7 0 -129
0 -128 -119 1 c-66 1 -123 4 -128 7 -4 3 -8 66 -8 140 l0 135 43 -6 c23 -3 80
-9 127 -13z m780 -116 c0 -74 -4 -137 -8 -140 -5 -3 -62 -6 -128 -7 l-119 -1
-3 126 c-2 96 0 127 10 130 11 4 59 9 231 24 15 2 17 -10 17 -132z m1156 92
c-16 -98 -99 -191 -194 -218 -55 -15 -225 -13 -220 3 3 8 37 15 96 19 134 10
201 44 253 126 36 58 38 82 4 82 -18 0 -29 -9 -44 -37 -39 -78 -101 -112 -219
-120 l-75 -6 6 63 c4 35 7 78 7 96 l0 34 196 0 197 0 -7 -42z m-1506 -118 l0
-130 -125 0 -125 0 0 130 0 130 125 0 125 0 0 -130z m-1586 -52 l27 -48 -71 0
c-40 0 -70 3 -68 8 2 4 16 31 32 60 33 59 35 59 80 -20z m165 18 c17 -29 31
-56 31 -60 0 -3 -29 -6 -65 -6 -36 0 -65 2 -65 5 0 7 61 115 65 115 2 0 17
-24 34 -54z m379 -131 c6 -5 7 -175 1 -175 -8 0 -66 128 -75 164 -6 24 -5 25
33 19 21 -3 39 -7 41 -8z m1912 4 c0 -16 -71 -179 -79 -179 -3 0 -5 39 -4 87
l2 88 33 6 c18 4 36 7 41 8 4 0 7 -4 7 -10z m-1642 -25 l82 -6 0 -178 0 -177
-87 -17 -88 -16 -42 48 -42 47 -1 158 0 159 48 -6 c26 -3 84 -8 130 -12z
m1472 -141 l-1 -158 -42 -47 -43 -47 -87 16 -87 16 0 177 0 178 73 6 c39 3 88
8 107 9 90 9 80 27 80 -150z m-1042 -29 l3 -151 -73 -7 c-40 -4 -99 -9 -130
-13 l-58 -6 0 167 0 167 128 -3 127 -3 3 -151z m692 -9 c0 -148 -2 -165 -17
-165 -9 0 -68 5 -130 11 l-113 12 0 147 c0 81 3 150 7 153 3 4 62 7 130 7
l123 0 0 -165z m-350 8 l0 -148 -125 0 -125 0 0 148 0 147 125 0 125 0 0 -147z
m-1189 -285 l77 -83 24 22 24 23 40 -41 c40 -42 171 -150 200 -167 14 -8 11
-14 -22 -45 l-39 -36 29 -30 29 -30 49 41 c45 37 51 40 75 29 l26 -12 -53 -54
-53 -54 76 -83 c57 -62 73 -86 65 -95 -6 -7 -56 -55 -111 -105 l-99 -92 -78
84 -78 85 -29 -26 c-15 -14 -109 -101 -207 -193 l-180 -167 -21 23 c-12 13
-86 91 -164 175 l-142 152 78 74 c43 40 135 127 206 192 70 65 127 120 127
123 0 3 -34 40 -76 84 -41 44 -74 83 -72 87 4 9 211 201 217 201 3 0 40 -37
82 -82z m2324 -18 c57 -52 104 -98 104 -102 1 -3 -33 -42 -74 -86 -41 -44 -75
-82 -75 -85 0 -2 60 -60 133 -127 72 -68 165 -154 204 -193 l73 -69 -142 -151
c-77 -84 -151 -162 -163 -175 l-22 -23 -174 162 c-96 89 -189 176 -207 193
l-34 31 -78 -85 -77 -84 -89 81 c-49 44 -99 92 -112 105 l-22 24 76 83 77 82
-53 54 -53 54 26 12 c23 11 30 8 74 -29 l48 -42 30 31 30 30 -39 36 c-33 31
-36 37 -22 45 34 19 164 129 200 169 l38 41 25 -24 25 -23 76 83 c42 45 80 81
85 79 5 -1 55 -45 112 -97z m-895 -80 c52 -7 101 -16 109 -20 17 -9 -134 -70
-239 -96 -58 -15 -111 -19 -235 -19 -180 0 -245 12 -399 73 -108 43 -104 46
79 67 151 16 534 14 685 -5z"/>
<path d="M1296 1861 l-27 -28 222 -239 c122 -131 249 -267 282 -302 l60 -63
28 27 c16 15 29 31 29 35 0 10 -549 599 -559 599 -4 0 -20 -13 -35 -29z"/>
<path d="M1412 1285 c-73 -69 -137 -125 -142 -125 -5 0 -46 41 -91 90 -45 50
-88 90 -94 90 -20 0 -58 -47 -49 -62 20 -33 229 -248 238 -245 6 2 85 73 177
158 l166 154 -26 32 c-14 17 -30 32 -36 32 -5 0 -70 -56 -143 -124z"/>
<path d="M3495 1595 c-151 -163 -275 -299 -275 -303 0 -5 13 -21 29 -36 l28
-27 282 302 282 302 -27 29 c-15 15 -31 28 -35 28 -5 0 -132 -133 -284 -295z"/>
<path d="M3519 1377 l-26 -32 169 -157 c93 -87 172 -158 176 -158 8 0 222 225
236 248 9 15 -29 62 -49 62 -6 0 -49 -40 -94 -90 -45 -49 -87 -90 -92 -90 -5
0 -68 55 -140 123 -72 67 -136 123 -142 124 -7 1 -24 -13 -38 -30z"/>
</g>
</svg>
